<mxfile host="app.diagrams.net" modified="2024-04-10T11:42:38.171Z" agent="Mozilla/5.0 (Windows NT 10.0; Win64; x64) AppleWebKit/537.36 (KHTML, like Gecko) Chrome/123.0.0.0 Safari/537.36" version="24.2.3" etag="gfJqEVlmf1Aoy_eD07Z4" type="github">
  <diagram name="Page-1" id="Wnfh3eiPhLQkFOk7oqfU">
    <mxGraphModel>
      <root>
        <mxCell id="0" />
        <mxCell id="1" parent="0" />
      </root>
    </mxGraphModel>
  </diagram>
</mxfile>
